<?xml version="1.0" encoding="utf-8"?>
<!-- Generator: Adobe Illustrator 22.0.1, SVG Export Plug-In . SVG Version: 6.00 Build 0)  -->
<svg version="1.1" xmlns="http://www.w3.org/2000/svg" xmlns:xlink="http://www.w3.org/1999/xlink" x="0px" y="0px"
	 viewBox="0 0 509 97.3" style="enable-background:new 0 0 509 97.3;" xml:space="preserve">
<g id="Layer_1">
	<g>
		<path d="M39.3,16.2h7.2v3.8h0.2c1.9-3.1,5.2-4.6,8.4-4.6c8,0,10,4.5,10,11.3v16.9h-7.5V28.2c0-4.5-1.3-6.8-4.8-6.8
			c-4.1,0-5.8,2.3-5.8,7.9v14.4h-7.5V16.2z"/>
		<path d="M76.6,13.3h-7.5V5.7h7.5V13.3z M69.1,16.2h7.5v27.5h-7.5V16.2z"/>
		<path d="M96.6,43.8h-8.4l-9.4-27.5h7.9L92.6,35h0.1l5.8-18.8h7.5L96.6,43.8z"/>
		<path d="M113.7,31.8c0.2,4.8,2.5,7,6.7,7c3,0,5.5-1.9,5.9-3.6h6.6c-2.1,6.5-6.6,9.3-12.8,9.3c-8.6,0-14-6-14-14.5
			c0-8.3,5.7-14.5,14-14.5c9.3,0,13.8,7.9,13.3,16.3H113.7z M125.9,27c-0.7-3.8-2.3-5.9-6-5.9c-4.8,0-6.1,3.7-6.3,5.9H125.9z"/>
		<path d="M136.3,16.2h7.2v5.1h0.1c1.4-3.5,5.1-5.9,8.7-5.9c0.5,0,1.2,0.1,1.6,0.3v7c-0.7-0.2-1.8-0.3-2.7-0.3c-5.5,0-7.4,4-7.4,8.8
			v12.4h-7.5V16.2z"/>
		<path d="M161.9,34.8c0.1,3.3,2.8,4.6,5.8,4.6c2.2,0,4.9-0.9,4.9-3.5c0-2.3-3.1-3.1-8.5-4.3c-4.3-1-8.7-2.5-8.7-7.3
			c0-7,6-8.8,11.9-8.8c6,0,11.5,2,12.1,8.8h-7.2c-0.2-2.9-2.4-3.7-5.1-3.7c-1.7,0-4.2,0.3-4.2,2.6c0,2.7,4.2,3.1,8.5,4.1
			c4.4,1,8.7,2.6,8.7,7.7c0,7.2-6.3,9.6-12.5,9.6c-6.4,0-12.6-2.4-12.9-9.7H161.9z"/>
		<path d="M191,13.3h-7.5V5.7h7.5V13.3z M183.5,16.2h7.5v27.5h-7.5V16.2z"/>
		<path d="M205.1,16.2h5.5v5.1h-5.5v13.6c0,2.6,0.6,3.2,3.2,3.2c0.8,0,1.5-0.1,2.3-0.2v5.9c-1.3,0.2-2.9,0.3-4.4,0.3
			c-4.6,0-8.6-1.1-8.6-6.5V21.3h-4.6v-5.1h4.6V8h7.5V16.2z"/>
		<path d="M228.3,47.2c-1.6,4.4-4.2,6.2-9.4,6.2c-1.5,0-3.1-0.1-4.6-0.3V47c1.4,0.1,2.9,0.3,4.4,0.3c2.6-0.3,3.4-3,2.6-5.2
			l-9.6-25.8h8.1l6.2,18.8h0.1l6-18.8h7.8L228.3,47.2z"/>
		<path d="M263.5,15.5c8.6,0,14.2,5.8,14.2,14.5c0,8.7-5.6,14.5-14.2,14.5c-8.6,0-14.2-5.7-14.2-14.5
			C249.3,21.2,254.9,15.5,263.5,15.5z M263.5,38.8c5.1,0,6.7-4.4,6.7-8.8c0-4.4-1.5-8.8-6.7-8.8c-5.1,0-6.6,4.4-6.6,8.8
			C256.8,34.4,258.4,38.8,263.5,38.8z"/>
		<path d="M282.6,21.3h-4.5v-5.1h4.5v-2.1c0-4.8,3-8.4,9.2-8.4c1.3,0,2.7,0.2,4,0.2v5.6c-0.9-0.1-1.8-0.2-2.8-0.2
			c-2,0-2.9,0.9-2.9,3.1v1.6h5.2v5.1h-5.2v22.5h-7.5V21.3z"/>
		<path d="M46,79.2c0.2,4.8,2.5,7,6.7,7c3,0,5.5-1.9,5.9-3.6h6.6c-2.1,6.5-6.6,9.3-12.8,9.3c-8.6,0-14-6-14-14.5
			c0-8.3,5.7-14.5,14-14.5c9.3,0,13.8,7.9,13.3,16.3H46z M58.3,74.4c-0.7-3.8-2.3-5.9-6-5.9c-4.8,0-6.1,3.7-6.3,5.9H58.3z"/>
		<path d="M68.4,63.6h7.2v5.1h0.1c1.4-3.5,5.1-5.9,8.7-5.9c0.5,0,1.2,0.1,1.6,0.3v7c-0.7-0.2-1.8-0.3-2.7-0.3c-5.5,0-7.4,4-7.4,8.8
			v12.4h-7.5V63.6z"/>
		<path d="M105.1,68.7h-5.5v13.6c0,2.6,0.6,3.2,3.2,3.2c0.8,0,1.5-0.1,2.3-0.2v5.9c-1.3,0.2-2.9,0.3-4.4,0.3c-4.6,0-8.6-1.1-8.6-6.5
			V68.7h-4.6v-5.1h4.6v-8.3h7.5v8.3h5.5h4.5v-2.1c0-4.8,3-8.4,9.2-8.4c1.3,0,2.7,0.2,4,0.2V59c-0.9-0.1-1.8-0.2-2.8-0.2
			c-2,0-2.9,0.9-2.9,3.1v1.6h5.2v5.1h-5.2v22.5h-7.5V68.7H105.1z"/>
		<path d="M138.1,62.9c8.6,0,14.2,5.7,14.2,14.5c0,8.7-5.6,14.5-14.2,14.5c-8.6,0-14.1-5.8-14.1-14.5
			C123.9,68.6,129.5,62.9,138.1,62.9z M138.1,86.2c5.1,0,6.7-4.4,6.7-8.8c0-4.4-1.5-8.8-6.7-8.8c-5.1,0-6.6,4.4-6.6,8.8
			C131.5,81.8,133,86.2,138.1,86.2z"/>
		<path d="M155.6,63.6h7.2v5.1h0.1c1.4-3.5,5.1-5.9,8.7-5.9c0.5,0,1.2,0.1,1.6,0.3v7c-0.7-0.2-1.8-0.3-2.7-0.3c-5.5,0-7.4,4-7.4,8.8
			v12.4h-7.5V63.6z"/>
		<path d="M194,87.6h-0.1c-1.7,3-4.8,4.3-8.3,4.3c-8.3,0-12.3-7.1-12.3-14.7c0-7.4,4.1-14.3,12.1-14.3c3.2,0,6.4,1.4,8.1,4.1h0.1
			V53.1h7.5v38H194V87.6z M187.4,68.6c-4.9,0-6.6,4.3-6.6,8.8c0,4.3,2,8.8,6.6,8.8c5,0,6.5-4.4,6.5-8.9
			C193.9,72.8,192.3,68.6,187.4,68.6z"/>
		<path d="M211.1,82.2c0.1,3.3,2.8,4.6,5.8,4.6c2.2,0,4.9-0.9,4.9-3.5c0-2.3-3.1-3.1-8.5-4.3c-4.3-1-8.7-2.5-8.7-7.3
			c0-7,6-8.8,11.9-8.8c6,0,11.5,2,12.1,8.8h-7.2c-0.2-2.9-2.4-3.7-5.1-3.7c-1.7,0-4.2,0.3-4.2,2.6c0,2.7,4.2,3.1,8.5,4.1
			c4.4,1,8.7,2.6,8.7,7.7c0,7.2-6.3,9.6-12.5,9.6c-6.4,0-12.6-2.4-12.9-9.7H211.1z"/>
		<path d="M232.1,53.1h7.5v14.3h0.2c1.9-3.1,5.2-4.6,8-4.6c8,0,10,4.5,10,11.3v16.9h-7.5V75.6c0-4.5-1.3-6.8-4.8-6.8
			c-4.1,0-5.8,2.3-5.8,7.9v14.4h-7.5V53.1z"/>
		<path d="M269.7,60.7h-7.5v-7.5h7.5V60.7z M262.2,63.6h7.5v27.5h-7.5V63.6z"/>
		<path d="M274.1,63.6h7.2v5.1h0.1c1.4-3.5,5.1-5.9,8.7-5.9c0.5,0,1.2,0.1,1.6,0.3v7c-0.7-0.2-1.8-0.3-2.7-0.3c-5.5,0-7.4,4-7.4,8.8
			v12.4h-7.5V63.6z"/>
		<path d="M298.9,79.2c0.2,4.8,2.5,7,6.7,7c3,0,5.5-1.9,5.9-3.6h6.6c-2.1,6.5-6.6,9.3-12.8,9.3c-8.6,0-14-6-14-14.5
			c0-8.3,5.7-14.5,14-14.5c9.3,0,13.8,7.9,13.3,16.3H298.9z M311.1,74.4c-0.7-3.8-2.3-5.9-6-5.9c-4.8,0-6.1,3.7-6.3,5.9H311.1z"/>
		<path d="M414.4,5.6h-28.3v50.8c0,8-4.1,14.4-14.2,14.4c-10,0-14.2-6.5-14.2-14.4c0,0,0-50.8,0-50.8h-28.4c0,0,0,53.2,0,53.4
			c0,22.7,15.5,35.4,42.5,35.4c27.1,0,42.5-12.6,42.5-35.4C414.4,58.8,414.4,5.6,414.4,5.6z"/>
		<path d="M421.5,5.6h28.3v28.4h28.4V5.6h28.4v85.5h-28.4V62.6h-28.4v28.5h-28.3V5.6z"/>
		<g>
			<g>
				<path d="M35,5.8h-8.3v24c0,4.3-3.5,7.9-7.8,7.9c-4.3,0-7.8-3.5-7.8-7.9v-24H2.7c0,0,0,24.9,0,25.1c0,7.6,7.2,13.7,16.1,13.7
					c8.9,0,16.2-6.1,16.2-13.7C35,30.9,35,5.8,35,5.8z"/>
			</g>
			<polygon points="26.6,67.9 11,67.9 11,53 2.7,53 2.7,91.1 11,91.1 11,76.2 26.6,76.2 26.6,91.1 35,91.1 35,53 26.6,53 			"/>
		</g>
	</g>
</g>
<g id="Layer_2">
</g>
</svg>
